<?xml version="1.0" standalone="no"?>
<!DOCTYPE svg PUBLIC "-//W3C//DTD SVG 20010904//EN"
 "http://www.w3.org/TR/2001/REC-SVG-20010904/DTD/svg10.dtd">
<svg version="1.0" xmlns="http://www.w3.org/2000/svg"
 width="280.000000pt" height="280.000000pt" viewBox="0 0 280.000000 280.000000"
 preserveAspectRatio="xMidYMid meet">
<metadata>
Created by potrace 1.14, written by Peter Selinger 2001-2017
</metadata>
<g transform="translate(0.000000,280.000000) scale(0.100000,-0.100000)"
fill="#000000" stroke="none">
<path d="M1377 2723 c-9 -2 -14 -9 -11 -15 4 -6 0 -14 -7 -19 -11 -7 -10 -11
6 -24 11 -9 13 -14 5 -10 -13 6 -13 5 0 -7 19 -16 26 -63 7 -52 -9 6 -9 4 1
-8 7 -9 9 -19 4 -22 -4 -3 -9 -28 -11 -56 -1 -32 2 -50 8 -46 5 4 3 -7 -5 -24
-9 -16 -19 -30 -23 -30 -4 0 -17 -17 -29 -37 -21 -39 -97 -114 -110 -111 -4 2
-13 -10 -20 -25 -7 -15 -16 -27 -20 -27 -4 0 -9 -10 -9 -22 -1 -13 -10 -28
-19 -35 -10 -7 -14 -13 -10 -13 4 0 0 -7 -8 -16 -9 -8 -14 -20 -11 -25 4 -5 1
-9 -4 -9 -6 0 -10 -3 -9 -7 1 -5 -3 -18 -10 -30 -7 -13 -9 -23 -5 -23 4 0 2
-4 -6 -9 -17 -11 -25 -122 -9 -132 5 -4 18 -25 28 -47 l18 -40 -37 -15 c-20
-9 -64 -33 -96 -55 -54 -36 -64 -39 -112 -35 -38 4 -57 1 -67 -10 -8 -8 -12
-17 -9 -21 4 -3 1 -6 -5 -6 -15 0 -13 -66 4 -110 7 -19 15 -47 18 -62 3 -15 7
-32 11 -38 3 -5 1 -19 -5 -30 -8 -14 -8 -20 0 -20 6 0 8 -5 5 -10 -3 -6 0 -17
7 -25 32 -36 40 -47 44 -68 22 -97 24 -174 5 -195 -9 -10 -23 -17 -31 -17 -8
1 -25 -5 -37 -13 -13 -8 -23 -10 -23 -6 0 5 -5 2 -10 -6 -9 -13 -10 -13 -10 0
0 13 -1 13 -10 0 -5 -8 -10 -10 -10 -4 0 6 -7 11 -15 11 -8 0 -14 -7 -13 -16
2 -11 -3 -15 -16 -13 -10 2 -15 -1 -12 -6 3 -5 -7 -8 -21 -7 -15 0 -28 7 -31
15 -2 9 0 11 5 5 12 -16 63 -3 63 16 0 6 -8 5 -19 -1 -24 -12 -34 -13 -27 -2
9 15 -19 9 -34 -7 -8 -8 -14 -17 -12 -18 1 -2 2 -4 1 -5 0 -2 -2 -12 -4 -23
l-4 -20 16 20 c15 19 15 19 9 -5 -6 -21 -5 -23 6 -10 14 16 91 24 82 8 -3 -4
-9 -6 -14 -3 -5 3 -12 -6 -16 -20 -3 -14 -12 -25 -20 -25 -8 0 -14 -4 -14 -10
0 -5 -9 -10 -20 -10 -11 0 -19 -6 -18 -13 2 -6 -3 -11 -10 -9 -6 1 -11 -1 -10
-5 2 -5 -7 -18 -18 -29 -12 -12 -26 -29 -30 -37 -5 -9 -22 -18 -38 -21 -16 -3
-33 -10 -36 -17 -6 -8 -9 -7 -13 2 -4 10 -6 9 -6 -3 -1 -10 -8 -18 -16 -18 -8
0 -15 -4 -15 -9 0 -4 -11 -7 -25 -6 -14 2 -25 -1 -25 -6 0 -4 -8 -5 -17 -2
-12 5 -15 2 -10 -10 4 -10 2 -16 -6 -14 -7 1 -11 -4 -9 -11 1 -6 -2 -12 -7
-12 -4 0 -6 -11 -3 -25 2 -14 8 -22 13 -19 5 3 9 -6 9 -20 0 -24 4 -28 27 -25
4 0 10 -9 15 -20 4 -12 19 -26 33 -31 14 -5 25 -14 25 -20 0 -10 47 -26 67
-22 7 2 13 -2 13 -7 0 -7 9 -7 26 -1 22 9 29 6 52 -20 18 -19 40 -31 62 -34
19 -3 35 -6 35 -7 0 -1 16 -3 35 -4 49 -4 90 -22 90 -40 0 -8 3 -14 8 -14 21
4 31 -3 26 -16 -4 -8 -1 -15 7 -15 7 0 10 -3 6 -6 -10 -11 26 -42 45 -39 10 2
16 0 13 -6 -7 -11 84 -7 103 4 7 5 12 4 12 -2 0 -6 10 -9 23 -7 12 3 25 5 30
5 4 1 7 15 7 31 0 17 5 30 11 30 5 0 7 5 3 12 -4 6 -3 8 4 4 6 -3 13 -2 17 4
3 6 14 7 23 2 15 -7 38 -8 52 -2 3 1 12 3 21 5 39 7 65 19 80 36 9 10 20 15
24 11 5 -4 5 -2 1 5 -3 6 4 23 16 37 35 40 57 26 100 -63 38 -78 41 -80 106
-85 12 0 22 -4 22 -8 0 -4 7 -5 15 -2 8 3 38 7 67 8 48 1 56 -2 82 -31 16 -18
35 -33 42 -33 8 0 14 -5 14 -11 0 -6 6 -9 14 -6 7 3 19 0 25 -6 8 -8 11 -8 11
1 0 9 5 10 19 2 29 -15 191 -14 227 3 38 16 57 76 37 113 -22 39 1 47 43 13
21 -17 54 -37 71 -44 38 -16 211 -17 231 -2 7 5 15 7 19 3 6 -6 38 32 38 47 0
4 6 11 12 15 20 13 -1 85 -34 113 -42 37 -90 109 -73 109 5 0 2 16 -6 35 -8
19 -10 35 -5 35 6 0 6 12 1 29 -4 16 -6 32 -2 35 10 10 7 66 -3 66 -5 0 -4 4
3 9 15 9 15 20 0 39 -6 6 -7 12 -2 12 5 0 9 11 9 25 0 14 -2 25 -5 25 -3 0 -6
15 -6 33 -2 90 -10 135 -29 167 -11 19 -20 47 -20 63 1 15 -3 27 -8 27 -4 0
-6 3 -4 8 3 4 0 30 -5 57 -5 28 -11 77 -13 110 -2 33 -4 62 -5 65 -1 3 -2 9
-1 14 1 4 -4 15 -11 24 -10 12 -10 14 0 8 6 -4 12 -2 12 3 0 6 -5 11 -11 11
-5 0 -7 5 -4 10 3 6 0 10 -7 10 -9 0 -9 3 2 10 12 8 12 10 -5 11 -11 0 -14 3
-7 6 9 3 7 12 -8 33 -22 31 -26 50 -9 50 14 0 -7 20 -56 53 -22 15 -35 27 -30
27 5 0 0 6 -10 14 -17 12 -16 14 13 36 18 13 32 30 32 37 0 7 6 13 13 13 6 0
25 13 40 29 23 24 28 38 30 85 1 36 -3 60 -10 64 -7 5 -23 29 -36 55 -13 26
-26 44 -29 42 -3 -3 -10 13 -17 35 -6 22 -16 40 -21 40 -6 0 -10 7 -10 15 0 8
-4 15 -10 15 -5 0 -10 6 -10 13 -1 6 -21 32 -45 57 -25 25 -45 48 -45 53 0 4
-4 7 -10 7 -5 0 -26 17 -47 38 -21 20 -49 43 -61 50 -12 6 -32 18 -44 25 -13
6 -31 18 -40 25 -9 8 -22 11 -29 6 -8 -4 -10 -3 -5 4 4 7 1 12 -6 13 -7 0 -22
2 -33 5 -51 11 -85 11 -85 0 0 -6 -5 -4 -10 4 -8 12 -11 13 -19 1 -6 -9 -11
-10 -15 -2 -4 6 -13 8 -19 4 -7 -4 -54 -8 -104 -8 -87 -1 -92 0 -77 16 24 27
23 100 -1 113 -11 6 -37 28 -57 49 -21 20 -39 36 -40 36 -2 -1 -11 -3 -21 -6z"/>
</g>
</svg>
